<?xml version="1.0" encoding="UTF-8"?>
<svg width="512" height="512" viewBox="0 0 512 512" fill="none" xmlns="http://www.w3.org/2000/svg">
  <!-- Main Background Circle with subtle gradient -->
  <defs>
    <linearGradient id="logoGradient" x1="0%" y1="0%" x2="100%" y2="100%">
      <stop offset="0%" style="stop-color:#00D54B" />
      <stop offset="100%" style="stop-color:#00B341" />
    </linearGradient>
  </defs>
  
  <!-- Background Circle -->
  <circle cx="256" cy="256" r="256" fill="url(#logoGradient)"/>
  
  <!-- Cashly Symbol - Modern Dollar Sign -->
  <path d="M296 151.2c-26.4-13.6-55.2-20.4-86.4-20.4v-40.8h-28.8v40.8c-38.4 2.4-67.2 13.6-86.4 32.8-19.2 19.2-28.8 42.4-28.8 68.8 0 27.2 8.8 48.8 26.4 64.8 17.6 16 45.6 28.8 84 38.4 31.2 8 52.8 16.8 64.8 25.6 12 8.8 18.4 20.8 18.4 36 0 16-6.4 28.8-19.2 38.4-12.8 9.6-31.2 14.4-55.2 14.4-28.8 0-52-7.2-69.6-21.6-17.6-14.4-27.2-34.4-28.8-60h-40.8c1.6 36 14.4 64.8 38.4 86.4 24 21.6 56 33.6 96 35.2v40.8h28.8v-40.8c40-2.4 71.2-13.6 92.8-32.8 21.6-19.2 32.8-44 32.8-73.6 0-28-8.8-50.4-26.4-67.2-17.6-16.8-46.4-30.4-86.4-40-32-8-54.4-16-66.4-24-12-8-18.4-19.2-18.4-33.6 0-15.2 6.4-27.2 19.2-36 12.8-8.8 30.4-13.6 52.8-13.6 24 0 44 6.4 60 18.4 16 12 24.8 28.8 27.2 50.4h40.8c-2.4-32-14.4-57.6-36-76.8z" 
        fill="white"/>
        
  <!-- Subtle Highlight -->
  <circle cx="256" cy="236" r="180" fill="white" fill-opacity="0.1"/>
</svg>